<svg xmlns="http://www.w3.org/2000/svg" xmlns:xlink="http://www.w3.org/1999/xlink" width="500" zoomAndPan="magnify" viewBox="0 0 375 374.999991" height="500" preserveAspectRatio="xMidYMid meet" version="1.0"><defs><clipPath id="e0ce324eca"><path d="M 37.5 37.5 L 338.25 37.5 L 338.25 336.75 L 37.5 336.75 Z M 37.5 37.5 " clip-rule="nonzero"/></clipPath></defs><g clip-path="url(#e0ce324eca)"><path fill="#158a13" d="M 298.679688 233.992188 C 292.625 248.332031 283.953125 261.210938 272.910156 272.265625 C 261.867188 283.324219 249.003906 292.003906 234.683594 298.070312 C 219.855469 304.351562 204.109375 307.53125 187.875 307.53125 C 171.640625 307.53125 155.894531 304.351562 141.066406 298.070312 C 126.746094 292.003906 113.882812 283.324219 102.839844 272.265625 C 91.796875 261.210938 83.125 248.332031 77.070312 233.992188 C 70.796875 219.144531 67.617188 203.378906 67.617188 187.125 C 67.617188 170.871094 70.796875 155.101562 77.070312 140.253906 C 83.125 125.917969 91.796875 113.039062 102.839844 101.984375 C 113.882812 90.925781 126.746094 82.246094 141.066406 76.179688 C 155.894531 69.902344 171.640625 66.71875 187.875 66.71875 C 204.109375 66.71875 219.855469 69.902344 234.683594 76.179688 C 249.003906 82.246094 261.867188 90.925781 272.910156 101.984375 C 283.953125 113.039062 292.625 125.917969 298.679688 140.253906 C 304.953125 155.101562 308.132812 170.871094 308.132812 187.125 C 308.132812 203.378906 304.953125 219.144531 298.679688 233.992188 Z M 325.515625 201.617188 L 338.125 187.125 L 325.515625 172.628906 L 334.871094 155.84375 L 319.527344 144.292969 L 325.167969 125.917969 L 307.75 117.839844 L 309.4375 98.691406 L 290.722656 94.410156 L 288.414062 75.328125 L 269.21875 75.011719 L 263.015625 56.820312 L 244.175781 60.507812 L 234.316406 44.011719 L 216.660156 51.5625 L 203.574219 37.5 L 187.875 48.5625 L 172.175781 37.5 L 159.089844 51.5625 L 141.433594 44.011719 L 131.574219 60.507812 L 112.734375 56.820312 L 106.53125 75.011719 L 87.335938 75.328125 L 85.027344 94.410156 L 66.3125 98.691406 L 68 117.839844 L 50.582031 125.917969 L 56.222656 144.292969 L 40.878906 155.84375 L 50.234375 172.628906 L 37.625 187.125 L 50.234375 201.617188 L 40.878906 218.40625 L 56.222656 229.957031 L 50.582031 248.328125 L 68 256.410156 L 66.3125 275.558594 L 85.027344 279.839844 L 87.335938 298.921875 L 106.53125 299.238281 L 112.734375 317.425781 L 131.574219 313.742188 L 141.433594 330.238281 L 159.089844 322.6875 L 172.175781 336.75 L 187.875 325.6875 L 203.574219 336.75 L 216.660156 322.6875 L 234.316406 330.238281 L 244.175781 313.742188 L 263.015625 317.425781 L 269.21875 299.238281 L 288.414062 298.921875 L 290.722656 279.839844 L 309.4375 275.558594 L 307.75 256.410156 L 325.164062 248.328125 L 319.527344 229.957031 L 334.871094 218.40625 L 325.515625 201.617188 " fill-opacity="1" fill-rule="nonzero"/></g><path fill="#158a13" d="M 176.753906 255.605469 C 175.265625 257.335938 172.691406 257.46875 171.035156 255.898438 L 108.371094 196.511719 C 106.710938 194.941406 106.640625 192.296875 108.207031 190.636719 L 128.171875 169.511719 C 129.738281 167.855469 132.382812 167.78125 134.039062 169.351562 L 168.269531 201.789062 C 169.925781 203.359375 172.503906 203.226562 173.992188 201.496094 L 240.867188 123.695312 C 242.355469 121.960938 244.992188 121.765625 246.71875 123.253906 L 268.734375 142.226562 C 270.460938 143.714844 270.660156 146.351562 269.171875 148.085938 Z M 187.875 72.113281 C 124.539062 72.113281 73.007812 123.707031 73.007812 187.125 C 73.007812 250.539062 124.539062 302.136719 187.875 302.136719 C 251.210938 302.136719 302.742188 250.539062 302.742188 187.125 C 302.742188 123.707031 251.210938 72.113281 187.875 72.113281 " fill-opacity="1" fill-rule="nonzero"/></svg>